<mxfile host="Electron" agent="Mozilla/5.0 (Windows NT 10.0; Win64; x64) AppleWebKit/537.36 (KHTML, like Gecko) draw.io/24.7.8 Chrome/128.0.6613.36 Electron/32.0.1 Safari/537.36" version="24.7.8">
  <diagram name="Page-1" id="6YAq-xf7dmNSGfOlzyKv">
    <mxGraphModel dx="1036" dy="654" grid="1" gridSize="10" guides="1" tooltips="1" connect="1" arrows="1" fold="1" page="1" pageScale="1" pageWidth="850" pageHeight="1100" math="0" shadow="0">
      <root>
        <mxCell id="0" />
        <mxCell id="1" parent="0" />
        <mxCell id="KhOKozFz-Gz3McDqw5yM-1" value="U: User" style="shape=umlLifeline;perimeter=lifelinePerimeter;whiteSpace=wrap;html=1;container=1;dropTarget=0;collapsible=0;recursiveResize=0;outlineConnect=0;portConstraint=eastwest;newEdgeStyle={&quot;curved&quot;:0,&quot;rounded&quot;:0};fillColor=#ffe6cc;strokeColor=#d79b00;" parent="1" vertex="1">
          <mxGeometry x="40" y="40" width="100" height="770" as="geometry" />
        </mxCell>
        <mxCell id="KhOKozFz-Gz3McDqw5yM-6" value="" style="html=1;points=[[0,0,0,0,5],[0,1,0,0,-5],[1,0,0,0,5],[1,1,0,0,-5]];perimeter=orthogonalPerimeter;outlineConnect=0;targetShapes=umlLifeline;portConstraint=eastwest;newEdgeStyle={&quot;curved&quot;:0,&quot;rounded&quot;:0};fillColor=#ffe6cc;strokeColor=#d79b00;" parent="KhOKozFz-Gz3McDqw5yM-1" vertex="1">
          <mxGeometry x="45" y="70" width="10" height="630" as="geometry" />
        </mxCell>
        <mxCell id="KhOKozFz-Gz3McDqw5yM-3" value="URMS : System" style="shape=umlLifeline;perimeter=lifelinePerimeter;whiteSpace=wrap;html=1;container=1;dropTarget=0;collapsible=0;recursiveResize=0;outlineConnect=0;portConstraint=eastwest;newEdgeStyle={&quot;curved&quot;:0,&quot;rounded&quot;:0};fillColor=#f8cecc;strokeColor=#b85450;" parent="1" vertex="1">
          <mxGeometry x="375" y="40" width="100" height="770" as="geometry" />
        </mxCell>
        <mxCell id="KhOKozFz-Gz3McDqw5yM-8" value="" style="html=1;points=[[0,0,0,0,5],[0,1,0,0,-5],[1,0,0,0,5],[1,1,0,0,-5]];perimeter=orthogonalPerimeter;outlineConnect=0;targetShapes=umlLifeline;portConstraint=eastwest;newEdgeStyle={&quot;curved&quot;:0,&quot;rounded&quot;:0};fillColor=#f8cecc;strokeColor=#b85450;" parent="KhOKozFz-Gz3McDqw5yM-3" vertex="1">
          <mxGeometry x="45" y="66" width="10" height="634" as="geometry" />
        </mxCell>
        <mxCell id="KhOKozFz-Gz3McDqw5yM-14" value="check Credential" style="html=1;align=left;spacingLeft=2;endArrow=block;rounded=0;edgeStyle=orthogonalEdgeStyle;curved=0;rounded=0;" parent="1" edge="1">
          <mxGeometry relative="1" as="geometry">
            <mxPoint x="425" y="130" as="sourcePoint" />
            <Array as="points">
              <mxPoint x="455" y="160" />
            </Array>
            <mxPoint x="430" y="160" as="targetPoint" />
          </mxGeometry>
        </mxCell>
        <mxCell id="KhOKozFz-Gz3McDqw5yM-15" value="login successful" style="html=1;verticalAlign=bottom;endArrow=open;dashed=1;endSize=8;curved=0;rounded=0;" parent="1" edge="1">
          <mxGeometry x="0.0462" relative="1" as="geometry">
            <mxPoint x="420" y="171" as="sourcePoint" />
            <mxPoint x="95" y="171" as="targetPoint" />
            <mxPoint as="offset" />
          </mxGeometry>
        </mxCell>
        <mxCell id="KhOKozFz-Gz3McDqw5yM-16" value="A: Admin" style="shape=umlLifeline;perimeter=lifelinePerimeter;whiteSpace=wrap;html=1;container=1;dropTarget=0;collapsible=0;recursiveResize=0;outlineConnect=0;portConstraint=eastwest;newEdgeStyle={&quot;curved&quot;:0,&quot;rounded&quot;:0};fillColor=#d5e8d4;strokeColor=#82b366;" parent="1" vertex="1">
          <mxGeometry x="580" y="40" width="100" height="770" as="geometry" />
        </mxCell>
        <mxCell id="KhOKozFz-Gz3McDqw5yM-26" value="" style="html=1;points=[[0,0,0,0,5],[0,1,0,0,-5],[1,0,0,0,5],[1,1,0,0,-5]];perimeter=orthogonalPerimeter;outlineConnect=0;targetShapes=umlLifeline;portConstraint=eastwest;newEdgeStyle={&quot;curved&quot;:0,&quot;rounded&quot;:0};fillColor=#d5e8d4;strokeColor=#82b366;" parent="KhOKozFz-Gz3McDqw5yM-16" vertex="1">
          <mxGeometry x="45" y="246" width="10" height="94" as="geometry" />
        </mxCell>
        <mxCell id="8v8lnkComl2cOyQpWFoR-6" value="" style="html=1;points=[[0,0,0,0,5],[0,1,0,0,-5],[1,0,0,0,5],[1,1,0,0,-5]];perimeter=orthogonalPerimeter;outlineConnect=0;targetShapes=umlLifeline;portConstraint=eastwest;newEdgeStyle={&quot;curved&quot;:0,&quot;rounded&quot;:0};fillColor=#d5e8d4;strokeColor=#82b366;" parent="KhOKozFz-Gz3McDqw5yM-16" vertex="1">
          <mxGeometry x="45" y="390" width="10" height="64" as="geometry" />
        </mxCell>
        <mxCell id="8v8lnkComl2cOyQpWFoR-15" value="" style="html=1;points=[[0,0,0,0,5],[0,1,0,0,-5],[1,0,0,0,5],[1,1,0,0,-5]];perimeter=orthogonalPerimeter;outlineConnect=0;targetShapes=umlLifeline;portConstraint=eastwest;newEdgeStyle={&quot;curved&quot;:0,&quot;rounded&quot;:0};fillColor=#d5e8d4;strokeColor=#82b366;" parent="KhOKozFz-Gz3McDqw5yM-16" vertex="1">
          <mxGeometry x="45" y="570" width="10" height="70" as="geometry" />
        </mxCell>
        <mxCell id="KhOKozFz-Gz3McDqw5yM-17" value="login()" style="html=1;verticalAlign=bottom;endArrow=block;curved=0;rounded=0;" parent="1" edge="1">
          <mxGeometry width="80" relative="1" as="geometry">
            <mxPoint x="91.5" y="120" as="sourcePoint" />
            <mxPoint x="422" y="120" as="targetPoint" />
            <Array as="points">
              <mxPoint x="242" y="120" />
            </Array>
          </mxGeometry>
        </mxCell>
        <mxCell id="KhOKozFz-Gz3McDqw5yM-19" value="GetAvailableResource()" style="html=1;align=left;spacingLeft=2;endArrow=block;rounded=0;edgeStyle=orthogonalEdgeStyle;curved=0;rounded=0;" parent="1" edge="1">
          <mxGeometry relative="1" as="geometry">
            <mxPoint x="425" y="204" as="sourcePoint" />
            <Array as="points">
              <mxPoint x="455" y="234" />
            </Array>
            <mxPoint x="430" y="234" as="targetPoint" />
          </mxGeometry>
        </mxCell>
        <mxCell id="KhOKozFz-Gz3McDqw5yM-20" value="Display Availabe Resources" style="html=1;verticalAlign=bottom;endArrow=open;dashed=1;endSize=8;curved=0;rounded=0;" parent="1" edge="1">
          <mxGeometry x="0.0462" relative="1" as="geometry">
            <mxPoint x="418" y="247" as="sourcePoint" />
            <mxPoint x="93" y="247" as="targetPoint" />
            <mxPoint as="offset" />
          </mxGeometry>
        </mxCell>
        <mxCell id="KhOKozFz-Gz3McDqw5yM-21" value="Booking" style="shape=umlLifeline;perimeter=lifelinePerimeter;whiteSpace=wrap;html=1;container=1;dropTarget=0;collapsible=0;recursiveResize=0;outlineConnect=0;portConstraint=eastwest;newEdgeStyle={&quot;curved&quot;:0,&quot;rounded&quot;:0};fillColor=#e1d5e7;strokeColor=#9673a6;" parent="1" vertex="1">
          <mxGeometry x="720" y="40" width="100" height="770" as="geometry" />
        </mxCell>
        <mxCell id="KhOKozFz-Gz3McDqw5yM-25" value="" style="html=1;points=[[0,0,0,0,5],[0,1,0,0,-5],[1,0,0,0,5],[1,1,0,0,-5]];perimeter=orthogonalPerimeter;outlineConnect=0;targetShapes=umlLifeline;portConstraint=eastwest;newEdgeStyle={&quot;curved&quot;:0,&quot;rounded&quot;:0};fillColor=#e1d5e7;strokeColor=#9673a6;" parent="KhOKozFz-Gz3McDqw5yM-21" vertex="1">
          <mxGeometry x="45" y="320" width="10" height="50" as="geometry" />
        </mxCell>
        <mxCell id="8v8lnkComl2cOyQpWFoR-10" value="" style="html=1;points=[[0,0,0,0,5],[0,1,0,0,-5],[1,0,0,0,5],[1,1,0,0,-5]];perimeter=orthogonalPerimeter;outlineConnect=0;targetShapes=umlLifeline;portConstraint=eastwest;newEdgeStyle={&quot;curved&quot;:0,&quot;rounded&quot;:0};fillColor=#e1d5e7;strokeColor=#9673a6;" parent="KhOKozFz-Gz3McDqw5yM-21" vertex="1">
          <mxGeometry x="45" y="430" width="10" height="50" as="geometry" />
        </mxCell>
        <mxCell id="8v8lnkComl2cOyQpWFoR-17" value="" style="html=1;points=[[0,0,0,0,5],[0,1,0,0,-5],[1,0,0,0,5],[1,1,0,0,-5]];perimeter=orthogonalPerimeter;outlineConnect=0;targetShapes=umlLifeline;portConstraint=eastwest;newEdgeStyle={&quot;curved&quot;:0,&quot;rounded&quot;:0};fillColor=#e1d5e7;strokeColor=#9673a6;" parent="KhOKozFz-Gz3McDqw5yM-21" vertex="1">
          <mxGeometry x="45" y="620" width="10" height="50" as="geometry" />
        </mxCell>
        <mxCell id="KhOKozFz-Gz3McDqw5yM-22" value="RequestBooking()" style="html=1;verticalAlign=bottom;endArrow=block;curved=0;rounded=0;" parent="1" edge="1">
          <mxGeometry width="80" relative="1" as="geometry">
            <mxPoint x="95" y="289" as="sourcePoint" />
            <mxPoint x="425.5" y="289" as="targetPoint" />
            <Array as="points">
              <mxPoint x="245.5" y="289" />
            </Array>
          </mxGeometry>
        </mxCell>
        <mxCell id="KhOKozFz-Gz3McDqw5yM-27" value="ALT" style="shape=umlFrame;whiteSpace=wrap;html=1;pointerEvents=0;" parent="1" vertex="1">
          <mxGeometry x="20" y="310" width="790" height="220" as="geometry" />
        </mxCell>
        <mxCell id="KhOKozFz-Gz3McDqw5yM-28" value="" style="endArrow=none;dashed=1;html=1;dashPattern=1 3;strokeWidth=2;rounded=0;" parent="1" edge="1">
          <mxGeometry width="50" height="50" relative="1" as="geometry">
            <mxPoint x="17" y="423.5" as="sourcePoint" />
            <mxPoint x="837" y="422" as="targetPoint" />
          </mxGeometry>
        </mxCell>
        <mxCell id="KhOKozFz-Gz3McDqw5yM-33" value="[Approve Booking]" style="text;html=1;align=center;verticalAlign=middle;resizable=0;points=[];autosize=1;strokeColor=none;fillColor=none;" parent="1" vertex="1">
          <mxGeometry x="120" y="320" width="120" height="30" as="geometry" />
        </mxCell>
        <mxCell id="KhOKozFz-Gz3McDqw5yM-34" value="Send Info to System" style="html=1;verticalAlign=bottom;endArrow=open;dashed=1;endSize=8;curved=0;rounded=0;" parent="1" edge="1">
          <mxGeometry x="0.0448" relative="1" as="geometry">
            <mxPoint x="765" y="397" as="sourcePoint" />
            <mxPoint x="430" y="396.9999999999999" as="targetPoint" />
            <mxPoint as="offset" />
          </mxGeometry>
        </mxCell>
        <mxCell id="KhOKozFz-Gz3McDqw5yM-38" value="Notify Booking Rejected" style="html=1;verticalAlign=bottom;endArrow=open;dashed=1;endSize=8;curved=0;rounded=0;" parent="1" edge="1">
          <mxGeometry x="0.0462" relative="1" as="geometry">
            <mxPoint x="414" y="519" as="sourcePoint" />
            <mxPoint x="89" y="519" as="targetPoint" />
            <mxPoint as="offset" />
          </mxGeometry>
        </mxCell>
        <mxCell id="KhOKozFz-Gz3McDqw5yM-39" value="[Reject Booking]" style="text;html=1;align=center;verticalAlign=middle;resizable=0;points=[];autosize=1;strokeColor=none;fillColor=none;" parent="1" vertex="1">
          <mxGeometry x="103" y="424.5" width="110" height="30" as="geometry" />
        </mxCell>
        <mxCell id="H03IqOgt0diSwlKubZ3d-4" value="Browse Rsources" style="html=1;verticalAlign=bottom;endArrow=block;curved=0;rounded=0;" parent="1" edge="1">
          <mxGeometry width="80" relative="1" as="geometry">
            <mxPoint x="90" y="194" as="sourcePoint" />
            <mxPoint x="424.5" y="194" as="targetPoint" />
          </mxGeometry>
        </mxCell>
        <mxCell id="8v8lnkComl2cOyQpWFoR-1" value="NotifyAdmin()" style="html=1;verticalAlign=bottom;endArrow=block;curved=0;rounded=0;" parent="1" edge="1">
          <mxGeometry width="80" relative="1" as="geometry">
            <mxPoint x="430" y="300" as="sourcePoint" />
            <mxPoint x="630" y="300" as="targetPoint" />
            <Array as="points">
              <mxPoint x="570" y="300" />
            </Array>
          </mxGeometry>
        </mxCell>
        <mxCell id="8v8lnkComl2cOyQpWFoR-2" value="Approve&amp;nbsp;&lt;div&gt;Booking&lt;/div&gt;" style="html=1;align=left;spacingLeft=2;endArrow=block;rounded=0;edgeStyle=orthogonalEdgeStyle;curved=0;rounded=0;" parent="1" edge="1">
          <mxGeometry relative="1" as="geometry">
            <mxPoint x="630" y="320" as="sourcePoint" />
            <Array as="points">
              <mxPoint x="660" y="350" />
            </Array>
            <mxPoint x="635" y="350" as="targetPoint" />
          </mxGeometry>
        </mxCell>
        <mxCell id="8v8lnkComl2cOyQpWFoR-3" value="Update Data" style="html=1;verticalAlign=bottom;endArrow=block;curved=0;rounded=0;" parent="1" target="KhOKozFz-Gz3McDqw5yM-25" edge="1">
          <mxGeometry width="80" relative="1" as="geometry">
            <mxPoint x="630" y="370" as="sourcePoint" />
            <mxPoint x="785" y="370" as="targetPoint" />
          </mxGeometry>
        </mxCell>
        <mxCell id="8v8lnkComl2cOyQpWFoR-5" value="Notify Booking Successfull" style="html=1;verticalAlign=bottom;endArrow=open;dashed=1;endSize=8;curved=0;rounded=0;" parent="1" edge="1">
          <mxGeometry x="0.0462" relative="1" as="geometry">
            <mxPoint x="422" y="410" as="sourcePoint" />
            <mxPoint x="97" y="410" as="targetPoint" />
            <mxPoint as="offset" />
          </mxGeometry>
        </mxCell>
        <mxCell id="8v8lnkComl2cOyQpWFoR-7" value="Reject&amp;nbsp;&lt;div&gt;Booking&lt;/div&gt;" style="html=1;align=left;spacingLeft=2;endArrow=block;rounded=0;edgeStyle=orthogonalEdgeStyle;curved=0;rounded=0;" parent="1" edge="1">
          <mxGeometry relative="1" as="geometry">
            <mxPoint x="630" y="434" as="sourcePoint" />
            <Array as="points">
              <mxPoint x="660" y="464" />
            </Array>
            <mxPoint x="635" y="464" as="targetPoint" />
          </mxGeometry>
        </mxCell>
        <mxCell id="8v8lnkComl2cOyQpWFoR-8" value="Update Data" style="html=1;verticalAlign=bottom;endArrow=block;curved=0;rounded=0;" parent="1" edge="1">
          <mxGeometry width="80" relative="1" as="geometry">
            <mxPoint x="630" y="484" as="sourcePoint" />
            <mxPoint x="765" y="484" as="targetPoint" />
          </mxGeometry>
        </mxCell>
        <mxCell id="8v8lnkComl2cOyQpWFoR-9" value="Send Info to System" style="html=1;verticalAlign=bottom;endArrow=open;dashed=1;endSize=8;curved=0;rounded=0;" parent="1" edge="1">
          <mxGeometry x="0.0448" relative="1" as="geometry">
            <mxPoint x="765" y="511" as="sourcePoint" />
            <mxPoint x="430" y="510.9999999999999" as="targetPoint" />
            <mxPoint as="offset" />
          </mxGeometry>
        </mxCell>
        <mxCell id="8v8lnkComl2cOyQpWFoR-11" value="OPT" style="shape=umlFrame;whiteSpace=wrap;html=1;pointerEvents=0;" parent="1" vertex="1">
          <mxGeometry x="20" y="550" width="790" height="220" as="geometry" />
        </mxCell>
        <mxCell id="8v8lnkComl2cOyQpWFoR-12" value="[Issue Found]" style="text;html=1;align=center;verticalAlign=middle;resizable=0;points=[];autosize=1;strokeColor=none;fillColor=none;" parent="1" vertex="1">
          <mxGeometry x="125" y="560" width="100" height="30" as="geometry" />
        </mxCell>
        <mxCell id="8v8lnkComl2cOyQpWFoR-13" value="Report Issue()" style="html=1;verticalAlign=bottom;endArrow=block;curved=0;rounded=0;" parent="1" edge="1">
          <mxGeometry width="80" relative="1" as="geometry">
            <mxPoint x="90" y="599.9999999999999" as="sourcePoint" />
            <mxPoint x="424.5" y="599.9999999999999" as="targetPoint" />
          </mxGeometry>
        </mxCell>
        <mxCell id="8v8lnkComl2cOyQpWFoR-14" value="NotifyAdmin()" style="html=1;verticalAlign=bottom;endArrow=block;curved=0;rounded=0;" parent="1" edge="1">
          <mxGeometry width="80" relative="1" as="geometry">
            <mxPoint x="425" y="615" as="sourcePoint" />
            <mxPoint x="625" y="615" as="targetPoint" />
            <Array as="points">
              <mxPoint x="565" y="615" />
            </Array>
          </mxGeometry>
        </mxCell>
        <mxCell id="8v8lnkComl2cOyQpWFoR-16" value="Solve Issue" style="html=1;align=left;spacingLeft=2;endArrow=block;rounded=0;edgeStyle=orthogonalEdgeStyle;curved=0;rounded=0;" parent="1" edge="1">
          <mxGeometry relative="1" as="geometry">
            <mxPoint x="630" y="630" as="sourcePoint" />
            <Array as="points">
              <mxPoint x="660" y="660" />
            </Array>
            <mxPoint x="635" y="660" as="targetPoint" />
          </mxGeometry>
        </mxCell>
        <mxCell id="8v8lnkComl2cOyQpWFoR-18" value="Update Data" style="html=1;verticalAlign=bottom;endArrow=block;curved=0;rounded=0;" parent="1" edge="1">
          <mxGeometry width="80" relative="1" as="geometry">
            <mxPoint x="630" y="674" as="sourcePoint" />
            <mxPoint x="765" y="674" as="targetPoint" />
          </mxGeometry>
        </mxCell>
        <mxCell id="8v8lnkComl2cOyQpWFoR-19" value="Send Info to System" style="html=1;verticalAlign=bottom;endArrow=open;dashed=1;endSize=8;curved=0;rounded=0;" parent="1" edge="1">
          <mxGeometry x="0.0448" relative="1" as="geometry">
            <mxPoint x="765" y="699" as="sourcePoint" />
            <mxPoint x="430" y="698.9999999999999" as="targetPoint" />
            <mxPoint as="offset" />
          </mxGeometry>
        </mxCell>
        <mxCell id="8v8lnkComl2cOyQpWFoR-20" value="Notify User" style="html=1;verticalAlign=bottom;endArrow=open;dashed=1;endSize=8;curved=0;rounded=0;" parent="1" edge="1">
          <mxGeometry x="0.0462" relative="1" as="geometry">
            <mxPoint x="415" y="720" as="sourcePoint" />
            <mxPoint x="90" y="720" as="targetPoint" />
            <mxPoint as="offset" />
          </mxGeometry>
        </mxCell>
        <mxCell id="IO1AokJX8ROT6_Pv7OFz-2" value="" style="edgeStyle=orthogonalEdgeStyle;html=1;verticalAlign=bottom;endArrow=open;endSize=8;strokeColor=#171616;rounded=0;" edge="1" parent="1">
          <mxGeometry relative="1" as="geometry">
            <mxPoint x="424" y="267.0000000000001" as="targetPoint" />
            <mxPoint x="94" y="266" as="sourcePoint" />
            <Array as="points">
              <mxPoint x="94" y="267" />
            </Array>
          </mxGeometry>
        </mxCell>
        <mxCell id="IO1AokJX8ROT6_Pv7OFz-3" value="&lt;font style=&quot;font-size: 9px;&quot;&gt;&lt;b&gt;SelectResource()&lt;/b&gt;&lt;/font&gt;" style="text;html=1;align=center;verticalAlign=middle;resizable=0;points=[];autosize=1;strokeColor=none;fillColor=none;" vertex="1" parent="1">
          <mxGeometry x="208" y="244" width="100" height="30" as="geometry" />
        </mxCell>
      </root>
    </mxGraphModel>
  </diagram>
</mxfile>
